# xmcd
#
# Track frame offsets:
# 150
# 14634
# 32057
# 53799
# 84519
# 113754
# 134443
# 157523
# 173843
# 201044
# 229786
#
# Disc length: 3344 seconds
#
#
# Revision: 0
# Processed by: cddbd v1.5.2PL0 Copyright (c) Steve Scherf et al.
# Submitted via: FreeRIP 2.00 
#
DISCID=830d0e0b
DTITLE=Soul Saytr - No Slackin
DYEAR=2007
DGENRE=Blues
TTITLE0=You Dont Want Me To Answer That
TTITLE1=Get Over Yourself
TTITLE2=Comin Back On You
TTITLE3=Seven Nights
TTITLE4=Back of the Line
TTITLE5=Hole In My Heart
TTITLE6=No Good Woman
TTITLE7=Let It All Hang Out
TTITLE8=This Is Now
TTITLE9=Me All Over You
TTITLE10=Gotta Find Me A Woman
EXTD=
EXTT0=
EXTT1=
EXTT2=
EXTT3=
EXTT4=
EXTT5=
EXTT6=
EXTT7=
EXTT8=
EXTT9=
EXTT10=
PLAYORDER=
